<svg width="2000" height="2000" viewBox="0 0 2000 2000" fill="none" xmlns="http://www.w3.org/2000/svg">
<path d="M713.601 650.886C668.237 566.936 627.236 490.852 582.047 406.903C612.247 404.962 642.526 404.506 672.773 405.535C752.682 409.809 846.026 422.632 922.097 431.694C922.097 431.694 929.949 448.792 945.128 478.712C971.473 530.005 990.84 568.475 1018.58 619.768C1029.52 639.036 1039.19 658.967 1047.54 679.439C940.94 670.548 813.225 659.264 713.601 650.886C768.734 751.762 843.933 869.394 901.16 974.373C847.946 985.999 800.14 994.719 753.381 1007.03C713.077 1017.63 631.248 1052 591.294 1063.79C636.308 1149.28 716.218 1317.18 761.581 1402.5C702.434 1439.77 607.695 1519.1 552.212 1561.85C541.394 1570.23 531.623 1580.31 516.444 1594.16C488.877 1533.64 464.974 1477.9 438.629 1423.19C324.639 1186.21 210.183 949.41 95.2629 712.779C70.313 661.486 28.2649 577.195 0 527.783C66.6492 501.281 181.802 461.615 250.022 439.217C288.406 505.898 373.724 653.108 408.619 721.499L468.812 702.691C522.376 685.594 578.033 675.164 632.993 663.025C656.547 657.212 680.799 655.16 713.601 650.886Z" fill="#111111"/>
<path d="M901.16 973.86C1003.4 973.86 1113.15 976.766 1221.5 976.766C1154.85 879.31 1102.5 776.382 1047.02 678.926C1134.26 678.926 1222.89 684.91 1309.6 684.91C1274.71 616.519 1223.94 540.948 1189.74 474.78C1206.85 469.765 1224.36 466.162 1242.08 464.008C1315.89 451.356 1349.21 450.501 1436.97 431.181C1462.97 482.474 1518.45 579.588 1548.29 628.488C1531.8 635.922 1514.77 642.151 1497.34 647.124C1471.08 655.988 1444.12 662.735 1416.73 667.299C1394.4 671.573 1342.06 679.096 1309.6 684.397C1365.09 782.879 1423.71 880.849 1479.89 980.528C1392.65 980.528 1309.08 976.253 1220.97 976.253C1295.82 1102.6 1388.99 1243.83 1460.53 1364.71C1393.88 1355.99 1305.59 1343.34 1238.94 1335.47C1198.81 1330.69 1131.64 1330.17 1091.69 1324.53C1091.69 1324.53 1091.69 1325.73 1085.58 1315.3C1024.86 1210.66 959.434 1079.01 900.637 973.346L901.16 973.86Z" fill="#111111"/>
<path d="M1480.42 981.041C1546.02 968.217 1692.75 948.384 1749.28 926.157C1749.28 926.157 1766.73 945.477 1801.62 992.154C1863.5 1071.58 1929.73 1147.66 2000 1220.07C1971.91 1240.36 1942.41 1258.69 1911.72 1274.95C1830.76 1312.56 1802.67 1315.47 1719.79 1347.79C1638.66 1229.3 1581.96 1142.61 1505.36 1024.98C1495.55 1011.2 1487.19 996.479 1480.42 981.041Z" fill="#111111"/>
</svg>
