<svg width="136" height="24" viewBox="0 0 136 24" fill="none" xmlns="http://www.w3.org/2000/svg">
<g clip-path="url(#clip0_1553_6754)">
<path d="M35.21 19.7359H37.6969C37.895 19.7359 38.0271 19.6039 38.0271 19.4058V13.5516H43.6832V19.4058C43.6832 19.6039 43.8152 19.7359 44.0133 19.7359H46.5002C46.6983 19.7359 46.8304 19.6039 46.8304 19.4058V4.66021C46.8304 4.46213 46.6983 4.33008 46.5002 4.33008H44.0133C43.8152 4.33008 43.6832 4.46213 43.6832 4.66021V10.7785H38.0271V4.66021C38.0271 4.46213 37.895 4.33008 37.6969 4.33008H35.21C35.0119 4.33008 34.8799 4.46213 34.8799 4.66021V19.4058C34.8799 19.6039 35.0119 19.7359 35.21 19.7359Z" fill="#F4F4F4"/>
<path d="M53.9096 20C55.4282 20 56.8147 19.5598 57.7391 18.6355C57.9371 18.4594 57.9592 18.3054 57.8491 18.1513L57.0348 17.0289C56.9248 16.8748 56.8147 16.8528 56.6607 16.9409C55.7803 17.447 54.988 17.6011 54.1517 17.6011C52.4131 17.6011 51.2907 16.8528 50.9605 15.4883H57.519C58.4653 15.4883 58.7074 14.8941 58.7074 13.8377C58.7074 11.1087 56.8147 8.68774 53.5355 8.68774C50.2122 8.68774 47.9894 11.1307 47.9894 14.2999C47.9894 17.5571 50.3663 20 53.9096 20ZM50.9165 13.3535C51.1806 11.923 52.215 11.1967 53.5575 11.1967C54.856 11.1967 55.8244 11.923 56.0004 13.3535H50.9165Z" fill="#F4F4F4"/>
<path d="M59.977 19.7359H62.3759C62.574 19.7359 62.7061 19.6039 62.7061 19.4058V4.33012C62.7061 4.13205 62.574 4 62.3759 4H59.977C59.779 4 59.6469 4.13205 59.6469 4.33012V19.4058C59.6469 19.6039 59.779 19.7359 59.977 19.7359Z" fill="#F4F4F4"/>
<path d="M64.5506 19.7359H66.9495C67.1476 19.7359 67.2797 19.6039 67.2797 19.4058V4.33012C67.2797 4.13205 67.1476 4 66.9495 4H64.5506C64.3526 4 64.2205 4.13205 64.2205 4.33012V19.4058C64.2205 19.6039 64.3526 19.7359 64.5506 19.7359Z" fill="#F4F4F4"/>
<path d="M73.9 20C77.1352 20 79.5341 17.5351 79.5341 14.3439C79.5341 11.1527 77.1352 8.68774 73.9 8.68774C70.6428 8.68774 68.2439 11.1527 68.2439 14.3439C68.2439 17.5351 70.6428 20 73.9 20ZM71.171 14.3439C71.171 12.5832 72.3594 11.4828 73.9 11.4828C75.4186 11.4828 76.607 12.5832 76.607 14.3439C76.607 16.1045 75.4186 17.205 73.9 17.205C72.3594 17.205 71.171 16.1045 71.171 14.3439Z" fill="#F4F4F4"/>
<path d="M84.23 19.7359H86.7169C86.915 19.7359 87.047 19.6039 87.047 19.4058V10.2283L87.3331 11.1747L90.5904 19.4718C90.6564 19.6479 90.8104 19.7359 90.9865 19.7359H93.1873C93.3634 19.7359 93.5175 19.6479 93.5835 19.4718L96.8407 11.1747L97.1268 10.2283V19.4058C97.1268 19.6039 97.2589 19.7359 97.4569 19.7359H99.9439C100.142 19.7359 100.274 19.6039 100.274 19.4058V4.66021C100.274 4.46213 100.142 4.33008 99.9439 4.33008H97.0608C96.8847 4.33008 96.7527 4.39611 96.6866 4.55017L92.0869 16.1045L87.4872 4.55017C87.4212 4.39611 87.2891 4.33008 87.113 4.33008H84.23C84.0319 4.33008 83.8998 4.46213 83.8998 4.66021V19.4058C83.8998 19.6039 84.0319 19.7359 84.23 19.7359Z" fill="#F4F4F4"/>
<path d="M107.093 20C110.328 20 112.727 17.5351 112.727 14.3439C112.727 11.1527 110.328 8.68774 107.093 8.68774C103.836 8.68774 101.437 11.1527 101.437 14.3439C101.437 17.5351 103.836 20 107.093 20ZM104.364 14.3439C104.364 12.5832 105.552 11.4828 107.093 11.4828C108.612 11.4828 109.8 12.5832 109.8 14.3439C109.8 16.1045 108.612 17.205 107.093 17.205C105.552 17.205 104.364 16.1045 104.364 14.3439Z" fill="#F4F4F4"/>
<path d="M118.781 20C122.016 20 124.415 17.5351 124.415 14.3439C124.415 11.1527 122.016 8.68774 118.781 8.68774C115.523 8.68774 113.124 11.1527 113.124 14.3439C113.124 17.5351 115.523 20 118.781 20ZM116.052 14.3439C116.052 12.5832 117.24 11.4828 118.781 11.4828C120.299 11.4828 121.488 12.5832 121.488 14.3439C121.488 16.1045 120.299 17.205 118.781 17.205C117.24 17.205 116.052 16.1045 116.052 14.3439Z" fill="#F4F4F4"/>
<path d="M125.692 19.7359H128.069C128.267 19.7359 128.399 19.6039 128.399 19.4058V13.8157C128.399 12.2971 129.236 11.4828 130.512 11.4828C131.811 11.4828 132.515 12.2971 132.515 13.8157V19.4058C132.515 19.6039 132.647 19.7359 132.845 19.7359H135.2C135.398 19.7359 135.552 19.6039 135.552 19.4058V13.1334C135.552 10.3164 133.901 8.68774 131.657 8.68774C130.05 8.68774 129.016 9.48003 128.399 10.5805L128.311 9.30397C128.311 9.03987 128.179 8.95184 127.981 8.95184H125.692C125.494 8.95184 125.362 9.08389 125.362 9.28196V19.4058C125.362 19.6039 125.494 19.7359 125.692 19.7359Z" fill="#F4F4F4"/>
<mask id="mask0_1553_6754" style="mask-type:luminance" maskUnits="userSpaceOnUse" x="0" y="0" width="24" height="24">
<path d="M24 0H0V24H24V0Z" fill="white"/>
</mask>
<g mask="url(#mask0_1553_6754)">
<path d="M15.8534 16.751H15.4003V17.1984H15.8534V16.751Z" fill="#EAEAEA"/>
<path d="M16.7731 15.8457H16.3098V16.2899H16.7731V15.8457Z" fill="white"/>
<path d="M21.2961 16.7509V16.2895H20.8475V15.3933H19.9379V14.9409H19.0263V15.8457H17.6733V16.7509H17.223V17.1976H16.7731V18.5515H16.3127V18.1157H15.4076V18.5515H14.5021V19.9139H14.0502V20.8223H13.5889V21.269H13.139V20.8223H12.2294V22.1763H11.3268V22.6319H10.4319V22.1811H9.51782V21.7206H8.15674V22.6319H8.60989V23.0843H8.15674V23.5367H9.96976L9.96935 23.989L14.5013 23.9894L14.5037 23.5334H15.864V23.0891L16.7679 23.0847L16.7662 22.6319L17.6733 22.6323L17.6738 22.1799L18.5797 22.1795L18.5801 21.7271H19.0328V21.2747H19.9395V20.8223H18.5756V21.2776H18.1249V21.73H17.6652V21.2776H18.1249V20.8223H17.223V19.9139H16.7731V20.37H16.3123V19.9139H16.7731V19.4652C16.7731 19.4652 19.0365 19.4741 19.0275 19.4652C19.0186 19.4563 19.0275 20.3679 19.0275 20.3679H19.4758V18.108H20.8458V17.6475H20.3971V17.1947H20.3951V16.7509H21.2961ZM15.4003 19.9139H14.9528V19.4652L15.4003 19.4632V19.9139ZM16.7731 20.8223V21.2776H17.2141V22.1823H16.7731V21.2776H16.3123V20.8223H16.7731Z" fill="white"/>
<path d="M15.4003 16.3009V16.7517H14.9529V16.3005L15.4003 16.3009Z" fill="white"/>
<path d="M3.17009 14.0406H2.71856V14.4882H1.81226V13.5842H3.16602L3.17009 14.0406Z" fill="#959595"/>
<path d="M11.3317 2.27218V2.73106H10.874V3.18345H9.96937V2.73106H8.61804V2.27218H9.51906V1.82385H10.8781V2.27218H11.3317Z" fill="white"/>
<path d="M13.1419 0.457764H10.8782V0.919051H13.1419V0.457764Z" fill="#EAEAEA"/>
<path d="M8.60989 22.632H8.15674V23.0852H8.60989V22.632Z" fill="#959595"/>
<path d="M5.88659 18.5614V19.0125H3.62408V18.5601H3.17174V17.6566H2.719V16.7502H2.26544V15.3934H1.81228V14.9333H1.35913V14.4883H1.36605V12.6791H1.81228V14.4883H2.71859V15.3934H3.17215V17.2022H4.07683V17.6566H4.52917V18.1086H4.98232V18.5614H5.88659Z" fill="#888888"/>
<path d="M9.51793 19.9233H9.06396V20.3707H9.51793V19.9233Z" fill="#888888"/>
<path d="M8.1633 20.8224H7.25415V21.2756H8.1633V20.8224Z" fill="#ADADAD"/>
<path d="M8.15148 20.3647H7.7085V20.8231H8.15148V20.3647Z" fill="#B4B4B4"/>
<path d="M8.15679 22.632H7.25049V23.0843H8.15679V22.632Z" fill="white"/>
<path d="M7.25172 22.1808L7.2505 22.6327L6.3446 22.6302L6.34501 22.1783L7.25172 22.1808Z" fill="white"/>
<path d="M6.34417 21.7272H5.43787V22.1804H6.34417V21.7272Z" fill="white"/>
<path d="M4.53159 20.3701H3.62488V20.8232H4.53159V20.3701Z" fill="white"/>
<path d="M5.43789 21.2748H4.98474V21.728H5.43789V21.2748Z" fill="white"/>
<path d="M4.98477 20.8224H4.53162V21.2756H4.98477V20.8224Z" fill="white"/>
<path d="M3.6249 19.9172H3.17175V20.3707H3.6249V19.9172Z" fill="white"/>
<path d="M2.71853 18.5601H2.26538V19.0133H2.71853V18.5601Z" fill="white"/>
<path d="M1.81228 17.203H1.35913V17.6561H1.81228V17.203Z" fill="white"/>
<path d="M3.17166 19.0125H2.71851V19.9173H3.17166V19.0125Z" fill="white"/>
<path d="M2.26541 17.6553H1.81226V18.5601H2.26541V17.6553Z" fill="white"/>
<path d="M1.35904 15.8457H0.905884V17.2029H1.35904V15.8457Z" fill="white"/>
<path d="M0.905952 14.4886H0.453613V15.8457H0.905952V14.4886Z" fill="white"/>
<path d="M0.452787 9.51233H-0.000366211V14.4885H0.452787V9.51233Z" fill="white"/>
<path d="M9.51784 20.37V20.8224H9.06184V21.7206H8.15676V22.6319H7.25045L7.25167 22.1807L6.34496 22.1783L6.34415 21.7271H5.43784V21.2747H4.98469V20.8224H4.53154V20.37H3.62482V19.9172H3.17167V19.0124H2.71852V18.56H2.26537V17.6552H1.81222V17.2029H1.35906V15.8457H0.905911V14.4885H0.453572L0.452759 14.4877V9.51233H1.36761V14.4885H1.35906V14.9332H1.81222V15.3933H2.26537V16.7501H2.71893V17.6565H3.17167V18.56H3.62401V19.0124H5.88652V19.4648H7.70849V20.8224H7.25411V21.2747H8.16326V20.8224H8.60828V20.37H9.51784Z" fill="#959595"/>
<path d="M11.3268 20.3701V21.2748H10.4218V21.7207H9.06189V20.8225H9.51789V20.3701H11.3268Z" fill="#888888"/>
<path d="M12.2294 20.8224V22.1763H11.3268V22.632H10.4319V22.1812H9.51782V21.7207H10.4217V21.2748H11.3268V20.8224H12.2294Z" fill="#959595"/>
<path d="M11.3269 20.37V18.1162H9.51793V17.6549H9.06396V19.0125H9.96906V19.4681H9.06396V19.9233H9.51793V20.37H11.3269Z" fill="#7F7F7F"/>
<path d="M9.51793 19.0125H9.06396V19.4689H9.51793V19.0125Z" fill="#C4C4C4"/>
<path d="M9.96906 19.0125H9.51794V19.4689H9.96906V19.0125Z" fill="#ADADAD"/>
<path d="M13.139 20.3699V20.8223H11.7795V19.468H12.2294V19.9163H12.6842V20.3699H13.139Z" fill="#7F7F7F"/>
<path d="M11.7795 19.468H11.3268V20.8223H11.7795V19.468Z" fill="#868686"/>
<path d="M13.5889 20.8225H13.139V21.2699H13.5889V20.8225Z" fill="#959595"/>
<path d="M14.0503 20.3701V20.8225H13.1391V20.3701H12.6843V19.9165H12.2295V19.4682H11.3269V18.1163H9.51792V17.655H9.06395V17.2026H8.60754V16.7518H9.06395V14.9415H9.51792V14.4883H9.96944V17.655H10.4234V15.3947H10.8774V15.8479H11.3261V16.2933H11.7796V19.0129H13.1419V19.914H13.5947V20.3701H14.0503Z" fill="#919191"/>
<path d="M8.15148 19.4648H7.7085V20.3647H8.15148V19.4648Z" fill="#A6A6A6"/>
<path d="M7.70852 19.0125H7.24194V19.4657H7.70852V19.0125Z" fill="#A6A6A6"/>
<path d="M7.24193 18.562H6.79041V19.0128H7.24193V18.562Z" fill="#A6A6A6"/>
<path d="M6.79043 18.1052H6.3446V18.5628H6.79043V18.1052Z" fill="#969696"/>
<path d="M6.34463 18.1052H5.8866V18.562H6.34463V18.1052Z" fill="#C9C9C9"/>
<path d="M5.8866 18.5613V19.4649H7.24199V19.0125H6.79046V18.5622L5.8866 18.5613Z" fill="#7F7F7F"/>
<path d="M9.06385 20.3701V18.1077H8.60744V19.0129H8.16323V18.5601H7.70886V19.0125V19.4649H8.15144V20.8225H8.60825V20.3701H9.06385Z" fill="white"/>
<path d="M8.60753 18.5613H8.16333V19.0137H8.60753V18.5613Z" fill="#C4C4C4"/>
<path d="M8.60753 18.1077H8.16333V18.5621H8.60753V18.1077Z" fill="#B0B0B0"/>
<path d="M9.06395 17.2025H8.60754V18.1076H9.06395V17.2025Z" fill="#C4C4C4"/>
<path d="M7.70886 18.5609V18.1077H8.16323V18.5621L7.70886 18.5609Z" fill="#C4C4C4"/>
<path d="M7.70852 18.1077H7.24194V19.0125H7.70852V18.1077Z" fill="#EAEAEA"/>
<path d="M7.24193 18.1077H6.79041V18.5633H7.24193V18.1077Z" fill="#DFDFDF"/>
<path d="M6.3446 18.1061V17.655C6.3446 17.655 6.77132 17.6362 6.79043 17.655C6.80915 17.6737 6.79043 18.1085 6.79043 18.1085L6.3446 18.1061Z" fill="#909090"/>
<path d="M7.24193 17.6549H6.79041V18.1085H7.24193V17.6549Z" fill="#ADADAD"/>
<path d="M7.70852 17.6549H7.24194V18.1085H7.70852V17.6549Z" fill="#B0B0B0"/>
<path d="M8.16323 17.6549H7.70886V18.1085H8.16323V17.6549Z" fill="#B0B0B0"/>
<path d="M9.51783 14.4881V14.9413H9.06386V16.7517H8.60746V18.1076H8.16325V17.6548H6.34454V18.1052H5.88651V18.5612H4.98224V18.1084H4.52908V17.6565H4.98508V17.2024H4.52908V16.2961H3.62278V15.3949L3.17207 15.3941L2.71851 15.3933V14.0406H3.17003L3.16596 13.5842V13.5785H3.62278V12.2213H4.08325L4.07471 11.7677H4.53356L4.52949 11.3267H5.44271V10.8686H4.98508V9.51233H5.44271V10.415H5.89749V9.96959L6.79769 9.96553V10.4191L7.25654 10.415V10.8686H6.33885V11.7718H5.89749L5.88651 14.0366H8.15715V13.5842H8.60746V14.0366L9.06183 14.0406V14.4881H9.51783Z" fill="#7F7F7F"/>
<path d="M4.98513 13.1331H4.52954V13.5822H4.98513V13.1331Z" fill="#969696"/>
<path d="M6.79077 14.9454H5.43457V15.3953H6.79077V14.9454Z" fill="#909090"/>
<path d="M7.25003 14.4883H6.79077V14.9467H7.25003V14.4883Z" fill="#969696"/>
<path d="M7.70889 14.4883H7.24963V14.9467H7.70889V14.4883Z" fill="#C9C9C9"/>
<path d="M8.15754 14.4883H7.70886V14.9467H8.15754V14.4883Z" fill="#969696"/>
<path d="M8.60749 14.4883H8.15759V14.9467H8.60749V14.4883Z" fill="#C9C9C9"/>
<path d="M3.17212 15.3933V15.8465H3.62283V15.395L3.17212 15.3933Z" fill="#C9C9C9"/>
<path d="M4.98517 15.8457H4.52917V16.2968H4.98517V15.8457Z" fill="#969696"/>
<path d="M4.98517 15.395H4.52917V15.8465H4.98517V15.395Z" fill="#919191"/>
<path d="M3.17212 17.202H4.0768V17.6565H4.52914H4.98514V17.2024H4.52914V16.2961H3.17212V17.202Z" fill="#B6B6B6"/>
<path d="M13.1419 19.0136V18.5515H12.6753V19.0132L13.1419 19.0136Z" fill="#DFDFDF"/>
<path d="M12.6753 18.5515H12.2331V18.1157H11.7795V19.0128H12.6753V18.5515Z" fill="#D4D4D4"/>
<path d="M13.1419 18.1157H12.6753V18.5522H13.1419V18.1157Z" fill="#D4D4D4"/>
<path d="M14.5021 18.5515V19.4632H14.0502V19.9139H13.1418V18.5515H13.5885V19.0124H14.0502V18.5515H14.5021Z" fill="#D4D4D4"/>
<path d="M14.0502 19.9139H13.5946V20.3707H14.0502V19.9139Z" fill="#DFDFDF"/>
<path d="M14.5021 19.4633H14.0502V19.9148H14.5021V19.4633Z" fill="#DFDFDF"/>
<path d="M12.6752 18.1157H12.233V18.5522H12.6752V18.1157Z" fill="#EAEAEA"/>
<path d="M14.5021 17.6549H11.7795V18.1166H14.5021V17.6549Z" fill="#EAEAEA"/>
<path d="M16.7732 17.1977V18.1159H15.4076V18.5516H13.1418V18.1159H14.5021V17.6549H14.9528V16.751H15.4003V17.1977H16.7732Z" fill="#DFDFDF"/>
<path d="M14.0502 18.5515H13.5885V19.0132H14.0502V18.5515Z" fill="#DFDFDF"/>
<path d="M12.2274 16.2932H11.7795V17.6552H12.2274V16.2932Z" fill="#D4D4D4"/>
<path d="M14.9528 17.1976H12.2274V17.656H14.9528V17.1976Z" fill="white"/>
<path d="M11.7795 15.8478H11.3259V16.2941H11.7795V15.8478Z" fill="#7F7F7F"/>
<path d="M16.3098 15.8457V16.2891H16.7731V16.7508H15.853V16.3013L15.4027 16.3009H15.4002L14.9528 16.3005L14.5021 16.3001V15.8522H15.853V15.3933H16.7731V15.8457H16.3098Z" fill="#DFDFDF"/>
<path d="M14.9528 16.3002V17.1977H14.5021V16.751H14.0502V15.8523H14.5021V16.3002H14.9528Z" fill="#E6E6E6"/>
<path d="M15.853 16.3009H15.4003V16.7516H15.853V16.3009Z" fill="white"/>
<path d="M16.7732 16.751H15.853V17.1984H16.7732V16.751Z" fill="white"/>
<path d="M16.7731 18.1157H16.3126V18.5522H16.7731V18.1157Z" fill="#EAEAEA"/>
<path d="M17.2231 15.3933H16.7732V15.8464H17.2231V15.3933Z" fill="white"/>
<path d="M17.6734 15.8457H16.7732V16.7509H17.6734V15.8457Z" fill="#DFDFDF"/>
<path d="M17.2231 16.751H16.7732V17.1984H17.2231V16.751Z" fill="#DFDFDF"/>
<path d="M14.0502 15.8518V16.7509H14.5022V17.1976H12.2275V16.2932H11.7796V15.8477H11.326H10.8773V15.3945H10.4234V14.9454L10.423 14.0361H11.7796V15.3933H12.2356V15.8453L14.0502 15.8518Z" fill="#EAEAEA"/>
<path d="M12.2355 14.0361H11.7795V15.3933H12.2355V14.0361Z" fill="#D1D1D1"/>
<path d="M7.25658 11.3228H6.79773V11.7706H7.25658V11.3228Z" fill="#D4D4D4"/>
<path d="M14.5013 15.3933L14.5022 15.8529L15.8531 15.8525V15.3933H14.5013Z" fill="#EAEAEA"/>
<path d="M14.9496 14.9454H14.5013V15.3937H14.9496V14.9454Z" fill="#EAEAEA"/>
<path d="M3.62283 15.8457H3.17212V16.2968H3.62283V15.8457Z" fill="#969696"/>
<path d="M18.1256 12.6787H17.6725V13.127H18.1256V12.6787Z" fill="white"/>
<path d="M18.5779 12.6787H18.1256V13.127H18.5779V12.6787Z" fill="#EAEAEA"/>
<path d="M18.582 13.1266H18.1256V13.5749H18.582V13.1266Z" fill="white"/>
<path d="M8.15709 12.2263H7.70068V12.6835H8.15709V12.2263Z" fill="#D1D1D1"/>
<path d="M9.96936 17.6548H10.4233V15.3945V14.9454H9.96936V17.6548Z" fill="#D1D1D1"/>
<path d="M13.1418 14.9454H12.2355V15.3936H13.1418V14.9454Z" fill="#DFDFDF"/>
<path d="M13.5917 14.0363H12.2355V14.489H13.5917V14.0363Z" fill="#DFDFDF"/>
<path d="M13.5917 14.4883H12.2355V14.9467H13.5917V14.4883Z" fill="#EAEAEA"/>
<path d="M12.2355 15.3933H12.6886V15.8481L12.2355 15.8465V15.3933Z" fill="#D1D1D1"/>
<path d="M12.6886 15.8481V15.3933H13.1418V15.8493L12.6886 15.8481Z" fill="#EAEAEA"/>
<path d="M13.1417 15.3933V15.8493L13.5916 15.8509V15.3933H13.1417Z" fill="#DFDFDF"/>
<path d="M13.5916 14.9454H13.1417V15.3936H13.5916V14.9454Z" fill="white"/>
<path d="M13.5917 15.3933H14.5012L14.502 15.853L13.5917 15.8509V15.3933Z" fill="white"/>
<path d="M14.0501 14.9454H13.5917V15.3936H14.0501V14.9454Z" fill="#EAEAEA"/>
<path d="M14.5013 14.9454H14.0502V15.3936H14.5013V14.9454Z" fill="#E6E6E6"/>
<path d="M14.9495 14.4883H13.5917V14.9467H14.9495V14.4883Z" fill="#DFDFDF"/>
<path d="M13.5917 14.0363V14.4882H14.0501V14.0363V13.5741V12.2227H13.5917V11.7703H13.1418V11.3228H12.2326V11.7747H12.6898V12.6832H12.2326V12.2312H11.7754V13.1307H12.2355V14.0363H13.5917Z" fill="#EAEAEA"/>
<path d="M6.33881 10.8688H7.25651V11.3228H6.79766V12.2182H6.33881V13.1331H7.25651H7.69786V13.581H8.15712V14.0363H5.88647V11.7719H6.33881V10.8688Z" fill="#919191"/>
<path d="M7.25649 13.1331H6.79358V13.5834H7.25649V13.1331Z" fill="#7F7F7F"/>
<path d="M9.05976 13.5842H8.60742V14.0414H9.05976V13.5842Z" fill="#919191"/>
<path d="M9.05981 14.0406H9.51785V14.4889H9.06185L9.05981 14.0406Z" fill="#919191"/>
<path d="M7.25647 13.1331V12.6831H8.15708V13.1331H9.97213V14.0407H10.4228V14.9455H9.96928V14.4882H9.51776V14.0407H9.05972V13.5843H7.69782V13.1331H7.25647Z" fill="#B6B6B6"/>
<path d="M10.4229 14.0414V13.5842H12.2355V14.0369L10.4229 14.0414Z" fill="#DFDFDF"/>
<path d="M12.2351 13.1306H11.7754V13.585H12.2351V13.1306Z" fill="#D1D1D1"/>
<path d="M11.7754 13.5843V13.1307H11.3291V11.7699H9.96764V12.2223H9.51774V12.6832H9.05971V11.7699H8.15707V11.3228H8.60737V10.8688H7.69334V11.3228H7.25646V11.7699H6.79761V12.2182H7.25646V12.6832H7.70066V12.2263H8.15707V12.6832V13.1331H9.97212V14.0407H10.4228V13.5843H11.7754Z" fill="#EAEAEA"/>
<path d="M7.25656 12.6831V12.2181H6.33887V13.133H7.25656V12.6831Z" fill="#D4D4D4"/>
<path d="M7.69335 10.8688H7.25647V11.3235H7.69335V10.8688Z" fill="#D4D4D4"/>
<path d="M13.1418 11.3227H14.0502V10.8686H14.496V9.96228H14.9577V10.8686H16.3229V11.3227H17.2129V10.8707H17.6677V9.96431H18.1294V11.3227H18.5711V11.7657H19.0328V12.2201V12.6786H17.6726H16.7711H14.496H14.0502V12.2226H13.5917V11.7702H13.1418V11.3227Z" fill="#E6E6E6"/>
<path d="M14.496 12.6794V12.2274H15.8615V12.6838L14.496 12.6794Z" fill="#DFDFDF"/>
<path d="M15.8616 12.6838V12.2274H16.7797V12.6794L15.8616 12.6838Z" fill="#EAEAEA"/>
<path d="M18.5776 12.2274H18.1204V12.6794H18.5776V12.2274Z" fill="#DFDFDF"/>
<path d="M18.1204 12.2275H17.6725V11.7694H18.5711H19.0328V12.2202V12.6787H18.578V12.2275H18.1204Z" fill="#EAEAEA"/>
<path d="M15.8533 14.9454H14.9495V15.3937H15.8533V14.9454Z" fill="#DFDFDF"/>
<path d="M14.9496 12.6787H14.0502V13.5741H14.9496V12.6787Z" fill="#E6E6E6"/>
<path d="M14.9496 14.0361H14.0502V14.4889H14.9496V14.0361Z" fill="#E6E6E6"/>
<path d="M14.9496 14.0362V14.4882H15.4015V13.5741H14.0502V14.0362H14.9496Z" fill="white"/>
<path d="M16.7732 14.9459V15.3934H15.853V14.4882H16.3131V14.9459H16.7732Z" fill="#EAEAEA"/>
<path d="M14.9496 14.9459H15.853V14.4882H16.3131V14.0363H15.4015V14.4882H14.9496V14.9459Z" fill="#E6E6E6"/>
<path d="M15.4015 12.6787H14.9496V13.127H15.4015V12.6787Z" fill="#DFDFDF"/>
<path d="M15.4015 13.1266H14.9496V13.5749H15.4015V13.1266Z" fill="#EAEAEA"/>
<path d="M15.8616 12.6787H15.4015V13.127H15.8616V12.6787Z" fill="#E6E6E6"/>
<path d="M15.8616 13.5741H15.4015V14.0366H15.8616V13.5741Z" fill="#EAEAEA"/>
<path d="M16.3131 14.0363V13.1266H16.7732V12.6787H15.8616V13.1266H15.4015V13.5741H15.8616V14.0363H16.3131Z" fill="#DFDFDF"/>
<path d="M17.2234 12.6787H16.7731V13.127H17.2234V12.6787Z" fill="#E6E6E6"/>
<path d="M16.7732 13.1266H16.3131V13.5749H16.7732V13.1266Z" fill="#EAEAEA"/>
<path d="M17.2235 13.5741H16.3131V14.0366H17.2235V13.5741Z" fill="#E6E6E6"/>
<path d="M19.9379 14.4883V14.941H19.0263V15.8458H17.6734V15.3934H16.7732V14.9459H16.3131V14.0363H16.7683V14.4883H17.6726V14.0363H17.2235V13.5745H16.7732V13.1266H17.2235V12.6791H17.6726V13.1266H18.1257V13.5745H18.5821V14.0363H19.0263V14.4883H19.9379Z" fill="#DFDFDF"/>
<path d="M17.2235 14.0363H16.7683V14.489H17.2235V14.0363Z" fill="#EAEAEA"/>
<path d="M17.6726 14.0363H17.2235V14.489H17.6726V14.0363Z" fill="white"/>
<path d="M17.6726 14.4882H17.2235V14.9414H17.6726V14.4882Z" fill="#E6E6E6"/>
<path d="M17.6734 15.3933H17.2231V15.8465H17.6734V15.3933Z" fill="#EAEAEA"/>
<path d="M18.5793 14.9458H18.1257V15.3941H18.5793V14.9458Z" fill="white"/>
<path d="M19.0328 12.6787H18.578V13.5741H19.0328V12.6787Z" fill="#DFDFDF"/>
<path d="M18.578 13.5741H19.0328V14.0371H18.5821L18.578 13.5741Z" fill="white"/>
<path d="M19.4868 14.0363H19.0328V14.489H19.4868V14.0363Z" fill="white"/>
<path d="M19.4868 13.5741H19.0328V14.0366H19.4868V13.5741Z" fill="#DFDFDF"/>
<path d="M18.1293 9.96436H18.578V10.8679H19.0327V11.3203H19.4843V11.7695H19.9378V11.3203H20.8474V12.2275H19.0327V11.7695H18.571V11.3228H18.1293V9.96436Z" fill="#A6A6A6"/>
<path d="M20.8474 11.7727H20.3934V12.2283H20.8474V11.7727Z" fill="#909090"/>
<path d="M19.0328 12.2274H20.3935V14.0362H19.9379V14.4882H19.4868V14.0362V13.574H19.0328V12.2274Z" fill="#E6E6E6"/>
<path d="M20.3935 14.0363H19.9379V14.489H20.3935V14.0363Z" fill="white"/>
<path d="M20.3935 14.4882H19.9379V14.9467H20.3935V14.4882Z" fill="#EAEAEA"/>
<path d="M20.8474 11.3203H19.9378V11.7695H19.4839V11.3203H19.0323V10.8675H18.5776V9.96393H18.1293H17.6676V9.51073C17.6676 9.51073 19.4883 9.50302 19.4883 9.51073C19.4883 9.51845 19.4883 9.96393 19.4883 9.96393H19.9391V9.50708H20.8478V9.96393H21.2965V10.4172H21.7533V11.324H21.2965V11.7723H20.8474V11.3203Z" fill="#909090"/>
<path d="M20.8478 9.50745H19.9391V9.96507H20.8478V9.50745Z" fill="#868686"/>
<path d="M21.2961 9.96436H20.8474V10.4163H21.2961V9.96436Z" fill="#868686"/>
<path d="M19.4884 9.96429V9.04977H19.9391V8.60388H20.8475V9.04977H21.7529V10.4175H21.2961V9.96429H20.8475V9.50743H19.9391V9.96429H19.4884Z" fill="#E6E6E6"/>
<path d="M18.1294 6.80664H17.6677V8.15486H18.1294V6.80664Z" fill="#E6E6E6"/>
<path d="M17.6677 5.89282H17.2214V6.80653H17.6677V5.89282Z" fill="#D1D1D1"/>
<path d="M17.2215 6.34656H14.9545V6.80744H17.2215V6.34656Z" fill="white"/>
<path d="M15.858 6.80653V6.34642H15.4077V5.89282H14.4932V5.44287H14.0429V4.9913H13.5942V4.53079H14.0454V4.07556H15.4085V4.98602H16.3058V5.44287H16.7618V6.80653H15.858Z" fill="#868686"/>
<path d="M21.753 6.34764V7.24998H21.2897V6.80653H19.9412V6.34764H19.4884V6.80653H18.1294V6.34764H18.5813V5.90013H19.0365V5.44287H20.3927V5.89282H20.8475V6.34764H21.753Z" fill="#9E9E9E"/>
<path d="M9.96772 11.776H9.51782V12.2234H9.96772V11.776Z" fill="#7F7F7F"/>
<path d="M9.51785 10.8688H9.05981V11.3236H9.51785V10.8688Z" fill="#7F7F7F"/>
<path d="M10.8757 10.8688H9.51782V11.3236H10.8757V10.8688Z" fill="#EAEAEA"/>
<path d="M9.05981 11.3228V12.6832H9.51785V12.2223V11.776H9.96775V11.3228H9.05981Z" fill="#8F8F8F"/>
<path d="M9.96777 11.7768V11.3228H10.423V11.7707L9.96777 11.7768Z" fill="#7F7F7F"/>
<path d="M7.69348 10.8688H8.60752V11.3228H8.15721V11.7699H9.05985V10.8688H10.8757V10.4123H9.96779H9.05985V9.51245H8.60629V10.4176H7.69348V10.8688Z" fill="#D4D4D4"/>
<path d="M10.8757 10.8688V11.3228H10.423V11.7699H11.3293V13.1307H11.7755V12.2312H12.2327H12.69V11.7748H12.2327V11.3228V10.8688H10.8757Z" fill="#D4D4D4"/>
<path d="M12.69 12.2312H12.2328V12.684H12.69V12.2312Z" fill="#BEBEBE"/>
<path d="M10.8757 10.8688V9.96436H12.2368V10.4164H12.69V10.8688H13.1391V11.3228H12.2327V10.8688H10.8757Z" fill="#E6E6E6"/>
<path d="M12.2368 9.96436H10.8757V10.4131H12.2368V9.96436Z" fill="#EAEAEA"/>
<path d="M10.8758 10.4123V9.96443H11.7756V9.51245H9.51794V9.96443H9.96784V10.4123H10.8758Z" fill="#B6B6B6"/>
<path d="M9.05981 9.51245V10.4123H9.96775V9.96443H9.51785V9.51245H9.05981Z" fill="#EAEAEA"/>
<path d="M12.2368 9.51245H11.7755V9.9652H12.2368V9.51245Z" fill="white"/>
<path d="M12.2368 9.96443V10.4172H12.69V9.9624L12.2368 9.96443Z" fill="white"/>
<path d="M12.2368 9.96443H12.69V10.8688H13.1391V11.3228H14.0502V10.8688H13.5979V10.4123H13.1419V9.96443H12.69V9.51245H12.2368V9.96443Z" fill="#B6B6B6"/>
<path d="M9.51785 9.51239V9.05594H9.05981V8.6064H9.51378V8.1532H9.96775V9.04701H13.1418V9.50751H14.0502V9.06447H15.8526V9.96437H17.2214V10.4123H14.9577V9.96234H14.496V10.4175H14.0502V9.96437H12.6899V9.51239H12.2368H9.51785Z" fill="#8F8F8F"/>
<path d="M13.1418 9.96436H14.0502V10.4175V10.8687H13.5978V10.4122H13.1418V9.96436Z" fill="#A6A6A6"/>
<path d="M14.496 10.4176H14.0502V10.8695H14.496V10.4176Z" fill="#B6B6B6"/>
<path d="M14.9578 10.4124H17.2215H17.6677V10.8708H17.213V11.3228H16.3229V10.8688H14.9578V10.4124Z" fill="#B6B6B6"/>
<path d="M17.6677 9.96436H17.2214V10.413H17.6677V9.96436Z" fill="#A6A6A6"/>
<path d="M17.6677 9.51123H17.2214V9.9652H17.6677V9.51123Z" fill="#8F8F8F"/>
<path d="M17.6677 9.51112V8.60391H16.3127V8.16533H15.8588V7.69954H14.5082V8.16533H11.7824V7.69954H10.8737V7.25H10.4238V7.69142H9.96533V8.16533V9.04695H13.1419V9.50746H14.0502V9.06442H15.8527V9.96432H17.2215V9.51112H17.6677Z" fill="#868686"/>
<path d="M17.6677 9.51121V8.604H18.1294V9.50756L17.6677 9.51121Z" fill="#A6A6A6"/>
<path d="M18.1294 8.60404V8.15491H18.5813V8.60729H19.0329V9.05765H19.4884V9.51085H18.1294V8.60404Z" fill="white"/>
<path d="M20.8475 8.604V8.14552H21.753V6.80664H22.1972V7.70532H22.6683V8.604H23.1072V9.06248H22.6601L22.6622 9.96441H21.753V9.04989H20.8475V8.604Z" fill="#CACACA"/>
<path d="M20.8475 12.2275H20.3936V13.1262H20.8475V12.2275Z" fill="#EAEAEA"/>
<path d="M21.2962 11.7727H20.8475V12.2283H21.2962V11.7727Z" fill="#EAEAEA"/>
<path d="M21.2962 11.7727V11.3243H21.753V12.6831H21.2962V13.1266H20.8475V12.2275H21.2962V11.7727Z" fill="#DFDFDF"/>
<path d="M21.7531 10.4175V11.3243H22.663V10.8707H22.1985V10.4155L21.7531 10.4175Z" fill="#D4D4D4"/>
<path d="M22.663 10.8708V10.4176H23.5648V11.3244H22.663V10.8708Z" fill="#CACACA"/>
<path d="M22.663 10.4155H22.1985V10.8715H22.663V10.4155Z" fill="#E6E6E6"/>
<path d="M21.7531 9.96436V10.4184H22.663L22.6634 9.96436H21.7531Z" fill="#959595"/>
<path d="M22.2009 13.1267V13.5746H21.753V14.0363H21.2962V14.9459H20.8475V15.3935H19.938V14.9459H20.3936V13.1267H20.8475V13.5746H21.2962V13.1267H22.2009Z" fill="#DFDFDF"/>
<path d="M21.2962 13.1267H20.8475V13.5749H21.2962V13.1267Z" fill="#EAEAEA"/>
<path d="M22.663 12.6831H22.2009V13.1273H22.663V12.6831Z" fill="#DFDFDF"/>
<path d="M22.663 12.2275H22.2009V12.6835H22.663V12.2275Z" fill="#959595"/>
<path d="M23.1137 11.7727V14.9459H22.663V14.4883H21.7531V14.0363H22.2009V13.5746H22.663V11.7727H23.1137Z" fill="#CACACA"/>
<path d="M22.663 13.1267H22.2009V13.5749H22.663V13.1267Z" fill="#EAEAEA"/>
<path d="M22.2009 13.5742H21.7531V14.0367H22.2009V13.5742Z" fill="white"/>
<path d="M21.7531 14.0363H21.2963V14.489H21.7531V14.0363Z" fill="white"/>
<path d="M22.663 14.4883V14.946H22.2009V15.3935H21.2963V14.946H21.7531V14.4883H22.663Z" fill="#DFDFDF"/>
<path d="M21.7531 14.4883H21.2963V14.9467H21.7531V14.4883Z" fill="#EAEAEA"/>
<path d="M21.2962 14.9458H20.8475V15.3941H21.2962V14.9458Z" fill="white"/>
<path d="M22.663 14.9458V16.2896H20.8475V15.3933H22.2009V14.9458H22.663Z" fill="#DFDFDF"/>
<path d="M22.6629 14.9458V15.8457H21.2961V15.3933H22.2008V14.9458H22.6629Z" fill="#CACACA"/>
<path d="M22.2009 16.2897V17.6554H21.7555V18.5602H21.2962V19.013H20.8459V19.9173H20.3923V20.3701H19.9343V20.8225H19.0276V20.3681H19.4759V18.5561H19.9392V18.1082H20.8459V17.6477H20.3972V17.1949H20.8459V16.751H21.2962V16.2897H22.2009Z" fill="#CACACA"/>
<path d="M20.8459 16.751H20.3951V17.1956H20.8459V16.751Z" fill="#EAEAEA"/>
<path d="M19.9392 18.1082H19.4758V18.5568H19.9392V18.1082Z" fill="#EAEAEA"/>
<path d="M22.6586 17.1948H22.2009V17.6561H22.6586V17.1948Z" fill="#7F7F7F"/>
<path d="M22.2009 17.6554H21.7555V18.5606H22.2009V17.6554Z" fill="#7F7F7F"/>
<path d="M21.7555 18.5606V19.0133H21.2963V18.5602L21.7555 18.5606Z" fill="#7F7F7F"/>
<path d="M21.2963 19.0128H20.8459V19.9176H21.2963V19.0128Z" fill="#7F7F7F"/>
<path d="M20.3928 20.3701H19.9343V20.8233H20.3928V20.3701Z" fill="#7F7F7F"/>
<path d="M20.8459 19.9176V20.3708H20.3927L20.3923 19.9176H20.8459Z" fill="#7F7F7F"/>
<path d="M15.4003 19.4633V19.9148H14.9529V19.4653L15.4003 19.4633Z" fill="#D1D1D1"/>
<path d="M19.0276 20.3681V20.8225H17.2231V19.9141H16.7732V19.4653C16.7732 19.4653 19.0365 19.4743 19.0276 19.4653C19.0186 19.4564 19.0276 20.3681 19.0276 20.3681Z" fill="#DFDFDF"/>
<path d="M18.5757 19.9176H18.125V21.2776H18.5757V19.9176Z" fill="#EAEAEA"/>
<path d="M16.7733 19.9141H16.3124V20.3709H16.7733V19.9141Z" fill="#DFDFDF"/>
<path d="M16.7733 20.8225H16.3124V21.2785H16.7733V20.8225Z" fill="#DFDFDF"/>
<path d="M17.2141 21.2777H16.7732V22.1825H17.2141V21.2777Z" fill="#DFDFDF"/>
<path d="M18.1249 21.2777H17.6653V21.7308H18.1249V21.2777Z" fill="#EAEAEA"/>
<path d="M18.5813 8.15486V8.60725H19.0329V9.0576H19.4884H19.9392V8.604H20.8475V8.14552H21.753V7.25009H20.8475V7.70735H20.3935V8.15486H19.0272V7.69963H18.5813V6.80664H18.1294V8.15486H18.5813Z" fill="#8F8F8F"/>
<path d="M18.5813 6.80666H19.4884V6.34778H19.9412V6.80666H21.2896V7.25011H20.8475V7.70737H20.3935V8.15488H19.0271V7.69966H18.5813V6.80666Z" fill="#868686"/>
<path d="M18.1294 8.15491H17.6677V8.60521H18.1294V8.15491Z" fill="#868686"/>
<path d="M14.9545 7.69966V7.25012H16.3212V7.69966H16.7752V8.15489H17.6677V8.60403H16.3127V8.16545H15.8587V7.69966H14.9545Z" fill="#8F8F8F"/>
<path d="M14.9545 7.25003V6.79724L17.6677 6.80658V7.25125V8.1548H16.7752V7.69958H16.3212V7.25003H14.9545Z" fill="#959595"/>
<path d="M17.6677 7.25122H17.2214V7.70031H17.6677V7.25122Z" fill="#868686"/>
<path d="M18.5813 6.34778V6.80744H19.03V6.34656L18.5813 6.34778Z" fill="#D4D4D4"/>
<path d="M21.2978 5.89282H20.8475V6.34842H21.2978V5.89282Z" fill="#CACACA"/>
<path d="M18.5814 5.44287V6.34764H18.1294V6.80653H17.6677V5.44287H18.5814Z" fill="#EAEAEA"/>
<path d="M19.0365 5.44287H18.5813V5.90091H19.0365V5.44287Z" fill="#D1D1D1"/>
<path d="M9.05983 9.05877V9.51238H8.60627V10.418H7.69346V9.96437H8.14661V9.51238H7.25129V8.6072H6.79895V7.69958H7.70322V8.16578H8.14661V8.6072H8.61197V9.05877H9.05983Z" fill="#EAEAEA"/>
<path d="M9.51785 9.05835H9.05981V9.51272H9.51785V9.05835Z" fill="#B6B6B6"/>
<path d="M8.14663 9.51233H7.69348V9.96507H8.14663V9.51233Z" fill="#919191"/>
<path d="M5.89182 8.60718V9.05875H5.43826L5.44273 9.51235H4.98511V9.05875H5.43826V8.60718H5.89182Z" fill="#959595"/>
<path d="M7.69347 9.51233H7.25659V9.96507H7.69347V9.51233Z" fill="#7F7F7F"/>
<path d="M7.69342 9.96433V10.8687H7.25654V10.4191H6.79769V9.96961H5.89749V10.4151H5.44271L5.43823 9.05875H6.34576V8.60718H7.25654V9.96433H7.69342Z" fill="#919191"/>
<path d="M6.79775 9.51233H6.33972V9.97036H6.79775V9.51233Z" fill="#D1D1D1"/>
<path d="M5.44273 10.8687H4.98511V11.3276H5.44273V10.8687Z" fill="#C9C9C9"/>
<path d="M14.954 6.34644H14.4932V6.79796H14.954V6.34644Z" fill="#D4D4D4"/>
<path d="M14.9544 6.79724H14.0465V7.2508H14.9544V6.79724Z" fill="#EAEAEA"/>
<path d="M1.80932 10.418V11.3231H2.24905V12.2312H1.81216V12.6791H1.36755V9.51233H2.71847V10.418H1.80932Z" fill="#D4D4D4"/>
<path d="M3.62271 12.6791H1.81213V13.5842H3.62271V12.6791Z" fill="#D4D4D4"/>
<path d="M3.62275 12.2267H3.1814V12.6798H3.62275V12.2267Z" fill="#919191"/>
<path d="M4.98511 9.9696V11.3268H4.52951V11.7678H4.07474V12.2214L3.6228 12.2267V11.3207H4.07636V10.4179H4.52829V9.9696H4.98511Z" fill="#919191"/>
<path d="M4.07636 10.4178H3.6228V10.8693H4.07636V10.4178Z" fill="#7F7F7F"/>
<path d="M2.71848 11.3266V11.7697H3.18139V12.6789H1.81217V12.231H2.24905V11.323H1.80933V10.4178H2.71848V10.8686H3.18139V11.3266H2.71848Z" fill="#EAEAEA"/>
<path d="M4.98508 9.05872V9.96959H4.52827V10.4179H3.62278V10.8687H4.07634V11.3207H3.62278V12.2267H3.18142V11.7698H2.71851V11.3268H3.18142V10.8687H2.71851V10.4179H3.18142V9.51233H3.62278V9.05872H4.98508Z" fill="#D4D4D4"/>
<path d="M0.906725 8.1543H0.452759V9.51227H0.906725V8.1543Z" fill="white"/>
<path d="M1.80932 8.60718H1.36755V9.51235H1.80932V8.60718Z" fill="#959595"/>
<path d="M2.71848 6.7948V8.15439H2.2637V9.51236H1.80933V7.69957H2.26166V6.7948H2.71848Z" fill="#D4D4D4"/>
<path d="M4.98509 9.05868H4.52747V8.16528H5.89181V8.60711H5.43825V9.05868H4.98509Z" fill="#D4D4D4"/>
<path d="M4.52741 8.60718H4.07629V9.05951H4.52741V8.60718Z" fill="#EAEAEA"/>
<path d="M10.4193 4.5377V4.98725H9.97022V5.44166H9.05985V5.89283H8.61076V6.34441H6.79612L6.79693 6.79882H6.34378V7.24999H5.88656V7.69953H4.98514V8.16573H4.52751V8.60715H4.07639V9.05872L3.62283 9.05912L3.17578 9.05953V8.15354H3.63219V7.69953H4.07639V7.24796H4.53565V6.7972H4.98229V6.34116H6.33727V5.88552H6.79897V5.44451H7.70243V4.98359H8.15924V4.53284H8.60588V4.08167H9.5191V4.5377H10.4193Z" fill="#909090"/>
<path d="M3.62285 9.05919V9.51239H3.18149V10.418H2.71857V9.51239H2.26379V8.15442H3.17579V9.0596L3.62285 9.05919Z" fill="#EAEAEA"/>
<path d="M5.43864 5.89282V6.34115H4.98224V6.79719H4.53559V7.24795H4.07634V7.69952H3.63213V8.15435H2.71851V7.69952H3.17573V7.24998H3.62441V6.35577H4.07837V5.89282H5.43864Z" fill="#9E9E9E"/>
<path d="M8.15915 4.08171V4.98364H7.70234V5.44455H6.79888V5.88557H6.33719V6.3412H5.43861V5.89288H4.52905V5.43603H4.98343V4.98851H5.43861V4.53613H6.33922V4.08171H6.79766V3.63623H7.70275V4.08171H8.15915Z" fill="#868686"/>
<path d="M6.79769 3.63623V4.08171H6.33925V4.53613H5.43864V4.98851H4.98345V5.43603H4.52908V5.89288H4.07837V4.98851H4.52908V4.53613H4.97613V4.08171H5.43864V3.63623H6.79769Z" fill="#A6A6A6"/>
<path d="M6.79768 3.1842H6.34412V3.63695H6.79768V3.1842Z" fill="#909090"/>
<path d="M8.61396 4.08167H8.15918V4.5336H8.61396V4.08167Z" fill="#9E9E9E"/>
<path d="M9.06676 3.63623H8.61401V4.08247H9.06676V3.63623Z" fill="#9E9E9E"/>
<path d="M9.51899 3.63623V4.08369L9.06665 4.08247V3.63623H9.51899Z" fill="#868686"/>
<path d="M9.9698 3.18346V4.08174H9.51909V3.63626H8.614V4.08174H7.70281V3.63626H6.79773V3.18428H7.25251V2.73108H9.51583V3.18346H9.9698Z" fill="#B6B6B6"/>
<path d="M9.51904 4.08171V4.53775H10.4192V3.63623H9.96935V4.08171H9.51904Z" fill="#868686"/>
<path d="M6.34579 8.60715V7.69954H6.79894V6.79883H6.34375V7.24999H5.88653V7.69954H4.98511V8.16573L5.89182 8.16532V8.60715H6.34579Z" fill="#EAEAEA"/>
<path d="M6.34581 8.60718H5.89185V9.05952H6.34581V8.60718Z" fill="#7F7F7F"/>
<path d="M6.79898 7.69958H6.34583V8.6072H6.79898V7.69958Z" fill="#D1D1D1"/>
<path d="M6.79614 6.3444L6.79899 7.69952H7.70326V8.16572H8.14665V8.60714H8.61201V9.05871H9.05987V8.60633V8.15313V7.69952V7.24998H9.96536V6.79881H9.51913V6.3444H9.05987V5.89282H8.61079V6.3444H6.79614Z" fill="#D4D4D4"/>
<path d="M7.2509 6.79963H7.70364V6.34485H7.25049L7.2509 6.79963Z" fill="white"/>
<path d="M9.05992 8.60716V8.1532H8.60718V8.60798L9.05992 8.60716Z" fill="#E6E6E6"/>
<path d="M9.51378 8.1532H9.05981V8.60716H9.51378V8.1532Z" fill="#B6B6B6"/>
<path d="M9.51378 7.25H9.05981V7.7003H9.51378V7.25Z" fill="#E6E6E6"/>
<path d="M9.51378 7.69958H9.05981V8.15437H9.51378V7.69958Z" fill="#B2B2B2"/>
<path d="M9.51379 8.15314V7.24999H9.96532V6.79883H11.3268V7.24999H10.4238V7.69142H9.96532V8.15314H9.51379Z" fill="#A6A6A6"/>
<path d="M9.51907 5.44165H9.05981V6.34439H9.51907V5.44165Z" fill="#EAEAEA"/>
<path d="M12.2371 5.89282V6.3444H11.7877V6.79881H9.51904V6.3444H10.8777V5.89282H12.2371Z" fill="#EAEAEA"/>
<path d="M10.8737 7.25012H12.2372V6.79895H12.6899V7.69966H13.5942V8.16545H11.7824V7.69966H10.8737V7.25012Z" fill="#8F8F8F"/>
<path d="M11.3268 7.25006V6.7989H11.7877V6.34448H12.2372H13.1418V7.25006H12.6899V6.7989H12.2372V7.25006H11.3268Z" fill="#B6B6B6"/>
<path d="M14.5082 8.16533V7.69954H14.9545V7.25H14.0506V7.70766H13.5942V7.25H12.6899V7.69954L13.5942 7.70766V8.16533H14.5082Z" fill="#A6A6A6"/>
<path d="M14.0465 6.79724H13.1418V7.2508H14.0465V6.79724Z" fill="#E6E6E6"/>
<path d="M14.0502 7.25H13.5942V7.70844H14.0502V7.25Z" fill="#EAEAEA"/>
<path d="M11.7767 5.44165L11.7726 5.89282H10.8777V6.34439H9.51904V5.44165H11.7767Z" fill="#D4D4D4"/>
<path d="M11.7766 4.9873H10.8781V5.44249H11.7766V4.9873Z" fill="#D1D1D1"/>
<path d="M11.7767 5.44165H12.2371V5.89358H11.7726L11.7767 5.44165Z" fill="#D1D1D1"/>
<path d="M12.6899 5.89282H12.2372V6.34516H12.6899V5.89282Z" fill="#D1D1D1"/>
<path d="M13.139 5.89282H12.6899V6.34476H13.139V5.89282Z" fill="#EAEAEA"/>
<path d="M13.139 5.89282V6.79719H14.0466V6.3444H13.5942V5.89282H13.139Z" fill="#D4D4D4"/>
<path d="M13.5942 5.89282H14.4932V6.79719H14.0466V6.3444H13.5942V5.89282Z" fill="#E6E6E6"/>
<path d="M13.5942 4.99133H14.0428V5.44291H14.4931V5.89285H15.4076V6.34646H14.4931V5.89285H14.0436L14.0428 5.44291H13.5925L13.5942 4.99133Z" fill="#909090"/>
<path d="M14.0436 5.44287H13.5925V5.89358H14.0436V5.44287Z" fill="#D4D4D4"/>
<path d="M9.96931 2.73108H9.51575V3.18423H9.96931V2.73108Z" fill="#EAEAEA"/>
<path d="M17.2231 3.18336V4.08326H16.7618V3.63209H15.8583V3.18336H14.9553V3.63209H14.5033V4.07595H14.0453V4.53118H13.5925V5.8928H13.139V5.44123H12.6899V5.8928H12.2372V5.44164H11.7767V4.98722H10.8781V5.44164H9.97017V4.98722H10.4193V4.5328H10.87V4.08692H10.4193V3.63616H9.96936V3.18336H10.874V2.73098H11.3317V2.27209H11.7783V2.73098H12.2396V3.18336H11.7783V3.63291H11.3288V4.53199H12.2359V4.08245H12.6895V3.63291H13.5962V3.17768H14.0461V2.72732H14.9553V2.27209H15.8624V2.72489H16.3139V3.18336H17.2231Z" fill="#EAEAEA"/>
<path d="M13.139 5.44092H12.6899V5.89326H13.139V5.44092Z" fill="#D1D1D1"/>
<path d="M10.87 4.08704H10.4193V4.53369H10.87V4.08704Z" fill="#D1D1D1"/>
<path d="M17.2214 6.34647V5.89287H17.6677V5.44292V4.99135H17.2231V4.53003H16.7618H15.4076V4.98607H16.3058V5.44292H16.7618V6.34647H17.2214Z" fill="#909090"/>
<path d="M15.4088 3.18347H14.9552V3.63296H15.4088V3.18347Z" fill="#C5C5C5"/>
<path d="M15.8583 3.18347H15.4088V3.63296H15.8583V3.18347Z" fill="#CDCDCD"/>
<path d="M16.3143 3.6322V4.08332L14.5033 4.07681V3.6322H16.3143Z" fill="#B6B6B6"/>
<path d="M15.4083 4.07565V4.53007H16.7617V3.6322H16.3142V4.08256L15.4083 4.07565Z" fill="#9E9E9E"/>
<path d="M17.223 4.08337H16.7617V4.53083H17.223V4.08337Z" fill="#C5C5C5"/>
<path d="M18.5813 4.98648V5.44292H17.6676V4.99135H17.223V4.53003H18.1244V4.98648H18.5813Z" fill="#D1D1D1"/>
<path d="M12.6896 3.63293V4.08324H12.236L12.2344 3.63293H12.6896Z" fill="#D4D4D4"/>
<path d="M16.3168 1.37101V1.82989H14.9553V2.72735H14.0461V3.17771H13.5962V3.63293H12.6895L12.694 3.18339H13.1418V2.73101H13.5962V1.81811H12.6879V1.37101H11.7808V1.8238H8.61804V1.37101H9.52516V0.918213H14.9561V1.37101H16.3168Z" fill="#D4D4D4"/>
<path d="M12.236 4.08252H11.7767V4.53852H12.236V4.08252Z" fill="#D4D4D4"/>
<path d="M13.5962 1.8182V2.73109H13.1418V3.18348H12.6939V3.63302H12.2371V4.08256H11.7766V4.53779H11.3288V3.63302H11.7783V3.18348H12.2395V2.73109H11.7783V2.27221H10.8781V1.82388H11.7807V1.37109H12.6878V1.8182H13.5962Z" fill="#DFDFDF"/>
<path d="M12.6846 2.27209H12.2396V2.73176H12.6846V2.27209Z" fill="#EAEAEA"/>
<path d="M19.5003 3.6322V4.08337H17.2231C17.2068 4.08337 17.2231 3.18347 17.2231 3.18347H16.314V2.72499H15.8624V2.2722H14.9553V1.82996H16.3168V2.2722H16.7618V2.73108H18.1294V3.6322H19.5003Z" fill="#DFDFDF"/>
<path d="M20.3926 5.44134V5.44297H18.5813V4.98652H18.1244V4.53007H17.223V4.08337H19.5002V4.53007H19.9371V5.44134H20.3926Z" fill="#EAEAEA"/>
<path d="M24.0188 9.9599V14.489L23.5652 14.4895V15.8454H23.1202V16.751L22.6585 16.7506V17.1948H22.2009V16.2897H22.663V14.9459H23.1137V11.3244H23.5648V10.4176H22.663L22.6601 9.06244H23.1072V8.60437H22.6682V7.70528H22.1972V6.8066H21.753V6.34772H21.2982V5.8929H20.3927V5.44132H19.9371V4.53005H19.5002V2.72742H19.9457V3.17736H20.3919L20.3927 3.63016L20.8442 3.63138V4.08335H21.2962V4.98H21.7599V5.44092H22.2082L22.2098 6.33797H22.6581V7.23503H23.1202V8.15767H23.5567V9.9599H24.0188Z" fill="#E6E6E6"/>
<path d="M21.753 11.3243V12.6831H21.2961V13.1265H22.2008V12.2274H22.6629V11.7726H23.1136V11.3243H21.753Z" fill="#EAEAEA"/>
<path d="M16.3168 1.82983H17.2231V2.27207H17.6608V2.73095H16.7618V2.27207H16.3168V1.82983Z" fill="#D4D4D4"/>
<path d="M18.1294 2.73108H18.5728V3.18346H19.5002V3.63219H18.1294V2.73108Z" fill="#D4D4D4"/>
<path d="M19.5002 2.72701V3.18346H18.5728V2.73107H17.6608V2.27219H17.2231V1.82995H16.3168V1.37107H14.9561V0.918276H13.1419V0.457769H10.8781V0.918276H9.52518V1.37107H8.61806V1.82386H8.16735V2.27219H6.79772V2.73107H5.90484V3.18346H4.98959V3.63625H4.52911V4.08173H4.0784V4.5329H3.61914V5.43483H2.71853V6.34122H2.26375V7.6996H1.80938V8.60721H1.36762V9.51239H0.906738V7.24884H1.35908V6.34528H1.81142V5.4397H2.26701V4.98934H2.71691V4.08051H3.17169V3.62975H3.62321V3.17533H4.07677V2.72457H4.98674V2.27381H5.43826V1.81614H6.34498L6.34416 1.36863H7.25047V0.916246H8.15677V0.46386H9.51623V0.0114746H14.5013V0.46386H15.8608V0.916246H17.2202V1.36863H17.6738L17.6734 1.82102L18.5797 1.82142L18.5781 2.2734H19.0332V2.72579L19.5002 2.72701Z" fill="#E6E6E6"/>
<path d="M9.51899 1.82385V2.27218H8.61798V2.73106H7.25242V3.18426H6.34408V3.63624H5.43859V4.08172H4.97608V4.53614H4.52903V4.98852H4.07832V6.35583H3.62435V7.25004H3.17567V7.69959H2.71845V6.79482H2.26367V6.34121H2.71845V5.43481H3.61906V4.53289H4.07832V4.08172H4.52903V3.63624H4.9895V3.18345H5.90476V2.73106H6.79764V2.27218H8.16727V1.82385H9.51899Z" fill="#EAEAEA"/>
</g>
</g>
<defs>
<clipPath id="clip0_1553_6754">
<rect width="136" height="24" fill="black"/>
</clipPath>
</defs>
</svg>
