<svg width="1309" height="345" viewBox="0 0 1309 345" fill="none" xmlns="http://www.w3.org/2000/svg">
<g clip-path="url(#clip0_880_2841)">
<path fill-rule="evenodd" clip-rule="evenodd" d="M22.5881 143.596C-14.4501 103.518 -4.71766 40.65 42.8344 12.8515C57.2182 4.462 73.7843 0.201226 90.5902 0.568801C107.396 0.936375 123.745 5.91706 137.719 14.9268C185.038 45.4087 191.604 110.814 150.44 149.254L148.864 170.139L99.2691 116.908L109.139 107.708C122.641 95.0839 120.694 73.2337 104.766 62.9761C100.175 60.0134 94.8052 58.3717 89.2829 58.243C83.7607 58.1142 78.3145 59.5037 73.5808 62.2491C69.9189 64.4 66.7918 67.3006 64.4208 70.7457C62.0498 74.1908 60.4928 78.0962 59.8598 82.1856C59.2269 86.2751 59.5336 90.4487 60.7582 94.4113C61.9827 98.3738 64.0952 102.029 66.9463 105.117L155.594 201.07C192.66 241.189 182.927 304.082 135.348 331.894C120.954 340.297 104.374 344.566 87.5528 344.201C70.7315 343.836 54.3673 338.851 40.3807 329.832C-6.9383 299.35 -13.4632 233.958 27.7011 195.532L30.8128 174.832L78.7075 228.036L69.0025 237.078C55.4867 249.714 57.4469 271.538 73.3478 281.783C82.7787 287.863 95.006 288.114 104.588 282.51C108.257 280.353 111.39 277.446 113.765 273.994C116.141 270.541 117.701 266.628 118.335 262.53C118.969 258.432 118.662 254.249 117.435 250.278C116.209 246.307 114.092 242.645 111.236 239.549L22.5881 143.596Z" fill="#FF4A54"/>
<path d="M322.19 118.873C322.19 100.727 328.721 85.8885 341.823 74.048C355.114 62.2194 372.617 56.1426 394.738 56.1426C412.12 56.1426 427.503 60.1912 441.005 68.2059L441.028 68.2192C453.61 75.5828 463.079 85.9242 469.467 99.3624L426.257 124.343C423.359 118.491 419.686 113.745 415.145 110.282C409.452 105.94 402.678 103.835 395.043 103.835C389.244 103.835 384.12 105.038 380.258 108.032C376.618 110.81 374.663 114.629 374.663 119.174C374.663 125.466 378.178 130.158 383.945 133.134L384.01 133.167C389.282 135.775 398.873 138.978 412.443 142.786C422.493 145.77 430.635 148.625 436.916 151.344L437.02 151.387C443.149 153.85 449.664 157.491 456.566 162.369L456.633 162.415C463.086 166.793 467.853 172.505 470.99 179.625L471.017 179.685L471.045 179.744C474.377 186.704 476.122 195.108 476.122 205.08C476.122 225.494 469.049 240.893 455.169 251.844C441.316 262.73 422.144 268.413 397.176 268.413C374.6 268.413 356.133 263.812 341.528 254.882C327.916 246.372 318.58 235.244 313.352 221.441L358.329 195.679C361.95 203.096 366.742 209.016 372.797 213.247C380.031 218.302 388.744 220.721 398.699 220.721C405.84 220.721 411.85 219.809 416.218 217.522C418.464 216.345 420.372 214.754 421.703 212.661C423.045 210.554 423.649 208.177 423.649 205.683C423.649 204.22 423.449 202.801 423.04 201.445C422.682 200.258 422.165 199.119 421.482 198.039C420.866 197.064 420.093 196.198 419.203 195.426C417.67 194.097 415.791 193.046 413.772 192.19C410.895 190.97 408.244 190.014 405.831 189.349C403.517 188.456 399.722 187.326 394.619 185.967C389.35 184.563 385.448 183.473 382.881 182.692L382.858 182.685C362.064 176.484 346.909 167.971 336.978 157.394C327.135 146.911 322.19 134.157 322.19 118.873Z" fill="#0E0F11"/>
<path fill-rule="evenodd" clip-rule="evenodd" d="M675.059 263.589V60.9648H722.961V142.407L730.476 133.269C739.31 122.526 751.638 117.03 768.02 117.03C787.332 117.03 802.9 124.054 815.074 138.168C827.32 152.365 833.561 170.343 833.561 192.42C833.561 214.496 827.32 232.474 815.074 246.671C802.9 260.785 787.332 267.809 768.02 267.809C751.638 267.809 739.31 262.313 730.476 251.57L722.961 242.432V263.589H675.059ZM754.31 159.899C745.121 159.899 737.354 163.019 731.4 169.38L731.343 169.443C725.704 175.719 722.961 183.475 722.961 192.42C722.961 201.364 725.703 209.121 731.342 215.397L731.4 215.459C737.354 221.82 745.121 224.94 754.31 224.94C763.483 224.94 771.177 221.828 776.943 215.428C782.792 209.164 785.658 201.397 785.658 192.42C785.658 183.442 782.792 175.675 776.943 169.411C771.177 163.011 763.483 159.899 754.31 159.899Z" fill="#0E0F11"/>
<path fill-rule="evenodd" clip-rule="evenodd" d="M859.832 60.9648V263.589H907.735V242.432L915.249 251.57C924.084 262.313 936.411 267.809 952.794 267.809C972.105 267.809 987.674 260.785 999.848 246.671C1012.09 232.474 1018.33 214.496 1018.33 192.42C1018.33 170.343 1012.09 152.365 999.848 138.168C987.674 124.054 972.105 117.03 952.794 117.03C936.411 117.03 924.084 122.526 915.249 133.269L907.735 142.407V60.9648H859.832ZM916.174 169.38C922.128 163.019 929.894 159.899 939.083 159.899C948.256 159.899 955.95 163.011 961.716 169.41C967.565 175.674 970.432 183.441 970.432 192.42C970.432 201.398 967.565 209.165 961.716 215.429C955.95 221.828 948.256 224.94 939.083 224.94C929.894 224.94 922.128 221.82 916.174 215.459L916.116 215.397C910.477 209.121 907.735 201.364 907.735 192.42C907.735 183.475 910.477 175.719 916.116 169.443L916.174 169.38Z" fill="#0E0F11"/>
<path fill-rule="evenodd" clip-rule="evenodd" d="M1059.52 138.7C1074.11 124.279 1092.4 117.029 1114.71 117.029C1136.84 117.029 1154.7 124.184 1168.66 138.369L1168.7 138.409C1182.87 152.428 1190 170.121 1190 191.816C1190 197.018 1189.48 202.152 1188.42 207.222H1083.92L1086.83 213.22C1092.69 225.294 1105.02 230.666 1121.72 230.666C1131.02 230.666 1139.64 227.787 1147.5 222.206L1178.26 247.862C1164.22 261.032 1144.94 267.808 1119.89 267.808C1094.77 267.808 1074.97 260.654 1060.06 246.673C1045.3 232.436 1037.9 214.655 1037.9 193.021C1037.9 171.136 1045.13 153.13 1059.52 138.7ZM1116.24 153.267C1108.98 153.267 1102.58 154.931 1097.31 158.528C1092.03 162.13 1088.23 167.429 1085.76 174.098L1083.67 179.725H1146.51L1144.99 174.397C1143.07 167.695 1139.71 162.296 1134.68 158.611C1129.66 154.933 1123.4 153.267 1116.24 153.267Z" fill="#0E0F11"/>
<path d="M498.285 121.25V204.175C498.285 226.135 503.147 241.958 512.166 252.357C521.436 262.613 533.64 267.809 549.201 267.809C565.924 267.809 578.174 261.968 586.61 250.537L594.26 240.173V263.589H642.162V121.25H594.26V194.53C594.26 202.601 592.275 209.496 587.794 214.693C583.362 220.079 576.956 222.529 569.31 222.529C562.273 222.529 556.242 220.633 552.036 216.137C547.888 211.702 546.188 205.447 546.188 198.147V121.25H498.285Z" fill="#0E0F11"/>
<path d="M1309 169.742V118.391C1297.17 120.07 1271.47 128.002 1263.3 146.302V121.25H1215.4V263.59H1263.3V211.711C1263.3 196.887 1268.24 185.356 1278.81 178.139C1287.66 171.921 1297.79 169.161 1309 169.742Z" fill="#0E0F11"/>
</g>
<defs>
<clipPath id="clip0_880_2841">
<rect width="1309" height="345" fill="white"/>
</clipPath>
</defs>
</svg>
